<svg width="410" height="373" xmlns="http://www.w3.org/2000/svg" xmlns:xlink="http://www.w3.org/1999/xlink" overflow="hidden"><defs><clipPath id="clip0"><rect x="402" y="217" width="410" height="373"/></clipPath><clipPath id="clip1"><rect x="490" y="503" width="236" height="74"/></clipPath><clipPath id="clip2"><rect x="676" y="481" width="61" height="51"/></clipPath><clipPath id="clip3"><rect x="478" y="481" width="61" height="51"/></clipPath><clipPath id="clip4"><rect x="447" y="227" width="321" height="100"/></clipPath><clipPath id="clip5"><rect x="432" y="289" width="83" height="68"/></clipPath><clipPath id="clip6"><rect x="701" y="289" width="83" height="68"/></clipPath><clipPath id="clip7"><rect x="444" y="386" width="51" height="49"/></clipPath><clipPath id="clip8"><rect x="422" y="400" width="40" height="48"/></clipPath><clipPath id="clip9"><rect x="444" y="386" width="51" height="49"/></clipPath><clipPath id="clip10"><rect x="422" y="400" width="40" height="48"/></clipPath><clipPath id="clip11"><rect x="721" y="386" width="50" height="49"/></clipPath><clipPath id="clip12"><rect x="754" y="400" width="41" height="48"/></clipPath><clipPath id="clip13"><rect x="510" y="431" width="49" height="43"/></clipPath><clipPath id="clip14"><rect x="656" y="433" width="49" height="40"/></clipPath><clipPath id="clip15"><rect x="557" y="306" width="101" height="174"/></clipPath><clipPath id="clip16"><rect x="593" y="485" width="30" height="28"/></clipPath><clipPath id="clip17"><rect x="634" y="487" width="16" height="16"/></clipPath><clipPath id="clip18"><rect x="565" y="487" width="17" height="16"/></clipPath></defs><g clip-path="url(#clip0)" transform="translate(-402 -217)"><g clip-path="url(#clip1)"><path d="M302.555 487.993C270.602 487.993 240.077 478.68 214.074 461.328L209.78 484.964 185.325 497.206C189.595 500.176 193.972 502.979 198.456 505.614 202.939 508.25 207.516 510.712 212.187 512.999 216.858 515.287 221.608 517.392 226.44 519.318 231.27 521.243 236.168 522.982 241.13 524.535 246.094 526.087 251.109 527.447 256.176 528.617 261.243 529.788 266.346 530.763 271.487 531.545 276.629 532.326 281.792 532.91 286.978 533.298 292.163 533.686 297.355 533.875 302.555 533.867 307.756 533.875 312.947 533.686 318.133 533.298 323.319 532.91 328.482 532.326 333.624 531.545 338.764 530.765 343.869 529.788 348.935 528.617 354.002 527.449 359.017 526.087 363.98 524.535 368.944 522.982 373.841 521.244 378.671 519.319 383.503 517.394 388.254 515.287 392.924 512.999 397.594 510.713 402.172 508.25 406.656 505.614 411.139 502.979 415.515 500.176 419.785 497.206L395.215 484.77 391.041 461.337C365.038 478.68 334.505 487.993 302.555 487.993Z" fill="#333333" transform="matrix(1.00228 0 0 1 304.567 42.5066)"/></g><g clip-path="url(#clip2)"><path d="M398.278 482.661 409.476 488.326C417.006 484.373 424.264 479.974 431.25 475.124L406.672 462.693 402.498 439.239C392.782 445.725 382.474 451.068 371.575 455.269L393.54 455.984Z" fill="#1C1C1C" transform="matrix(1.00228 0 0 1 304.567 42.5066)"/></g><g clip-path="url(#clip3)"><path d="M206.838 482.661 195.643 488.318C188.114 484.369 180.854 479.971 173.868 475.124L198.438 462.693 202.617 439.239C212.336 445.727 222.648 451.071 233.551 455.269L211.587 455.984Z" fill="#1C1C1C" transform="matrix(1.00228 0 0 1 304.567 42.5066)"/></g><g clip-path="url(#clip4)"><path d="M302.473 247.649C345.866 247.649 387.322 260.28 422.647 283.789L428.468 251.749 461.698 235.131C458.798 233.124 455.859 231.171 452.885 229.274 449.91 227.378 446.9 225.538 443.855 223.756 440.811 221.973 437.733 220.249 434.623 218.583 431.512 216.917 428.372 215.309 425.202 213.763 422.03 212.215 418.831 210.729 415.604 209.302 412.376 207.876 409.124 206.511 405.844 205.208 402.566 203.904 399.262 202.663 395.936 201.484 392.61 200.307 389.262 199.192 385.894 198.14 382.526 197.088 379.138 196.101 375.733 195.177 372.327 194.254 368.905 193.395 365.467 192.601 362.028 191.807 358.576 191.077 355.111 190.414 351.644 189.751 348.166 189.153 344.678 188.622 341.189 188.09 337.692 187.624 334.186 187.224 330.678 186.824 327.166 186.491 323.647 186.224 320.129 185.958 316.605 185.757 313.079 185.624 309.552 185.49 306.024 185.424 302.495 185.424 298.967 185.424 295.439 185.49 291.912 185.624 288.385 185.757 284.862 185.958 281.344 186.224 277.825 186.491 274.311 186.824 270.805 187.224 267.299 187.624 263.802 188.09 260.313 188.622 256.825 189.153 253.347 189.751 249.88 190.414 246.415 191.077 242.963 191.807 239.524 192.601 236.086 193.395 232.664 194.254 229.258 195.177 225.852 196.101 222.465 197.088 219.097 198.14 215.728 199.192 212.381 200.307 209.055 201.484 205.729 202.663 202.425 203.904 199.147 205.208 195.867 206.511 192.615 207.876 189.387 209.302 186.16 210.729 182.961 212.215 179.789 213.763 176.619 215.309 173.478 216.917 170.368 218.583 167.258 220.249 164.18 221.973 161.136 223.756 158.091 225.538 155.081 227.378 152.105 229.274 149.131 231.171 146.193 233.124 143.291 235.131L176.659 251.984 182.332 283.777C217.622 260.28 259.074 247.649 302.473 247.649Z" fill="#333333" transform="matrix(1.00228 0 0 1 304.567 42.5066)"/></g><g clip-path="url(#clip5)"><path d="M172.485 254.88 157.284 247.206C147.059 252.561 137.202 258.525 127.715 265.098L161.083 281.948 166.744 313.742C179.942 304.947 193.945 297.702 208.751 292.007L178.923 291.043Z" fill="#1C1C1C" transform="matrix(1.00228 0 0 1 304.567 42.5066)"/></g><g clip-path="url(#clip6)"><path d="M432.459 254.88 447.668 247.206C457.894 252.562 467.75 258.527 477.237 265.101L443.863 281.948 438.189 313.742C424.99 304.947 410.987 297.702 396.181 292.007L426.009 291.043Z" fill="#1C1C1C" transform="matrix(1.00228 0 0 1 304.567 42.5066)"/></g><g clip-path="url(#clip7)"><path d="M182.458 343.727 140.301 343.727 140.301 391.471 182.458 391.471C182.702 391.471 182.945 391.46 183.187 391.436 183.43 391.412 183.67 391.376 183.909 391.328 184.148 391.281 184.383 391.222 184.617 391.152 184.85 391.081 185.078 390.999 185.304 390.906 185.529 390.813 185.749 390.708 185.964 390.594 186.178 390.479 186.388 390.355 186.59 390.22 186.792 390.083 186.987 389.94 187.176 389.785 187.365 389.629 187.544 389.466 187.717 389.295 187.889 389.123 188.052 388.942 188.208 388.754 188.362 388.566 188.508 388.371 188.643 388.169 188.777 387.966 188.903 387.757 189.019 387.542 189.132 387.328 189.237 387.108 189.33 386.883 189.425 386.658 189.506 386.429 189.577 386.195 189.648 385.963 189.708 385.728 189.754 385.488 189.802 385.25 189.838 385.009 189.862 384.766 189.886 384.525 189.9 384.281 189.9 384.038L189.9 351.169C189.9 350.924 189.888 350.682 189.864 350.439 189.84 350.196 189.804 349.955 189.756 349.717 189.709 349.477 189.649 349.24 189.579 349.008 189.509 348.774 189.426 348.545 189.333 348.32 189.239 348.094 189.135 347.875 189.02 347.66 188.906 347.445 188.78 347.236 188.646 347.033 188.509 346.831 188.365 346.635 188.21 346.447 188.055 346.259 187.892 346.077 187.72 345.905 187.547 345.733 187.368 345.569 187.179 345.415 186.99 345.261 186.795 345.116 186.591 344.981 186.389 344.844 186.181 344.72 185.965 344.605 185.751 344.489 185.531 344.386 185.306 344.293 185.081 344.199 184.852 344.118 184.618 344.046 184.384 343.975 184.149 343.917 183.909 343.869 183.671 343.821 183.43 343.785 183.187 343.761 182.945 343.739 182.702 343.727 182.458 343.727Z" fill="#DA523F" transform="matrix(1.00228 0 0 1 304.567 42.5066)"/></g><g clip-path="url(#clip8)"><path d="M135.254 358.049 117.226 358.049 125.845 383.78 117.226 405 156.214 405 135.262 394.653Z" fill="#BE453A" transform="matrix(1.00228 0 0 1 304.567 42.5066)"/></g><g clip-path="url(#clip9)"><path d="M182.458 343.727 140.301 343.727 140.301 391.471 182.458 391.471C182.702 391.471 182.945 391.46 183.187 391.436 183.43 391.412 183.67 391.376 183.909 391.328 184.148 391.281 184.383 391.222 184.617 391.152 184.85 391.081 185.078 390.999 185.304 390.906 185.529 390.813 185.749 390.708 185.964 390.594 186.178 390.479 186.388 390.355 186.59 390.22 186.792 390.083 186.987 389.94 187.176 389.785 187.365 389.629 187.544 389.466 187.717 389.295 187.889 389.123 188.052 388.942 188.208 388.754 188.362 388.566 188.508 388.371 188.643 388.169 188.777 387.966 188.903 387.757 189.019 387.542 189.132 387.328 189.237 387.108 189.33 386.883 189.425 386.658 189.506 386.429 189.577 386.195 189.648 385.963 189.708 385.728 189.754 385.488 189.802 385.25 189.838 385.009 189.862 384.766 189.886 384.525 189.9 384.281 189.9 384.038L189.9 351.169C189.9 350.924 189.888 350.682 189.864 350.439 189.84 350.196 189.804 349.955 189.756 349.717 189.709 349.477 189.649 349.24 189.579 349.008 189.509 348.774 189.426 348.545 189.333 348.32 189.239 348.094 189.135 347.875 189.02 347.66 188.906 347.445 188.78 347.236 188.646 347.033 188.509 346.831 188.365 346.635 188.21 346.447 188.055 346.259 187.892 346.077 187.72 345.905 187.547 345.733 187.368 345.569 187.179 345.415 186.99 345.261 186.795 345.116 186.591 344.981 186.389 344.844 186.181 344.72 185.965 344.605 185.751 344.489 185.531 344.386 185.306 344.293 185.081 344.199 184.852 344.118 184.618 344.046 184.384 343.975 184.149 343.917 183.909 343.869 183.671 343.821 183.43 343.785 183.187 343.761 182.945 343.739 182.702 343.727 182.458 343.727Z" fill="#DA523F" transform="matrix(1.00228 0 0 1 304.567 42.5066)"/></g><g clip-path="url(#clip10)"><path d="M135.254 358.049 117.226 358.049 125.845 383.78 117.226 405 156.214 405 135.262 394.653Z" fill="#BE453A" transform="matrix(1.00228 0 0 1 304.567 42.5066)"/></g><g clip-path="url(#clip11)"><path d="M423.083 343.727 465.24 343.727 465.24 391.471 423.083 391.471C422.839 391.471 422.596 391.46 422.353 391.436 422.112 391.412 421.871 391.376 421.633 391.328 421.393 391.281 421.158 391.222 420.924 391.152 420.692 391.081 420.463 390.999 420.238 390.906 420.012 390.813 419.793 390.708 419.577 390.594 419.363 390.479 419.153 390.355 418.951 390.22 418.749 390.083 418.554 389.94 418.365 389.785 418.176 389.629 417.996 389.466 417.824 389.295 417.652 389.123 417.488 388.942 417.334 388.754 417.178 388.566 417.035 388.371 416.898 388.169 416.763 387.966 416.637 387.757 416.524 387.542 416.408 387.328 416.303 387.108 416.21 386.883 416.118 386.658 416.035 386.429 415.965 386.195 415.893 385.963 415.834 385.728 415.786 385.488 415.738 385.25 415.703 385.009 415.679 384.766 415.655 384.525 415.643 384.281 415.641 384.038L415.641 351.169C415.641 350.924 415.653 350.682 415.677 350.439 415.701 350.196 415.737 349.955 415.785 349.717 415.833 349.477 415.891 349.24 415.962 349.008 416.032 348.774 416.115 348.545 416.207 348.32 416.302 348.094 416.405 347.875 416.521 347.66 416.636 347.445 416.76 347.236 416.895 347.033 417.031 346.831 417.177 346.635 417.331 346.447 417.485 346.259 417.649 346.077 417.821 345.905 417.993 345.733 418.173 345.569 418.362 345.415 418.551 345.261 418.746 345.116 418.949 344.981 419.152 344.844 419.36 344.72 419.576 344.605 419.79 344.489 420.01 344.386 420.235 344.293 420.461 344.199 420.69 344.118 420.923 344.046 421.156 343.975 421.392 343.917 421.631 343.869 421.871 343.821 422.111 343.785 422.353 343.761 422.596 343.739 422.839 343.727 423.083 343.727Z" fill="#DA523F" transform="matrix(1.00228 0 0 1 304.567 42.5066)"/></g><g clip-path="url(#clip12)"><path d="M470.286 358.049 488.315 358.049 479.696 383.78 488.315 405 449.327 405 470.279 394.653Z" fill="#BE453A" transform="matrix(1.00228 0 0 1 304.567 42.5066)"/></g><path d="M331.704 327.281C335.308 330.925 338.51 334.894 341.31 339.188 344.112 343.482 346.453 348.013 348.338 352.781 349.246 352.835 350.147 352.77 351.038 352.587 351.93 352.403 352.781 352.108 353.594 351.699 361.399 347.793 384.928 335.867 392.747 330.687 402.175 324.438 389.883 305.422 389.883 305.422 389.883 305.422 377.198 286.672 367.771 292.921 359.954 298.093 339.806 315.109 333.149 320.749 332.437 321.354 331.818 322.043 331.292 322.815 330.766 323.588 330.351 324.417 330.05 325.301L329.972 325.527ZM388.931 321.32 389.279 321.843C389.379 321.997 389.463 322.159 389.531 322.33 389.598 322.499 389.647 322.674 389.68 322.856 389.713 323.035 389.727 323.217 389.722 323.401 389.719 323.584 389.697 323.765 389.656 323.943 389.616 324.122 389.558 324.295 389.483 324.462 389.408 324.63 389.316 324.787 389.21 324.935 389.104 325.085 388.982 325.221 388.849 325.346 388.714 325.47 388.569 325.579 388.413 325.675L354.382 346.226C354.231 346.301 354.075 346.361 353.912 346.406 353.75 346.451 353.585 346.48 353.418 346.495 353.248 346.51 353.08 346.509 352.913 346.492 352.746 346.477 352.58 346.444 352.418 346.398 352.256 346.352 352.1 346.29 351.951 346.214 351.799 346.137 351.657 346.049 351.524 345.947 351.389 345.844 351.266 345.73 351.152 345.605 351.04 345.48 350.939 345.346 350.851 345.202 350.763 345.059 350.688 344.907 350.628 344.75 350.568 344.593 350.523 344.431 350.491 344.264 350.461 344.098 350.446 343.93 350.448 343.763 350.448 343.593 350.464 343.427 350.496 343.261 350.527 343.094 350.574 342.933 350.635 342.777 350.697 342.619 350.772 342.468 350.86 342.326 350.95 342.182 351.052 342.049 351.166 341.924 351.279 341.8 351.404 341.687 351.539 341.586L385.22 320.491C385.37 320.4 385.527 320.323 385.692 320.262 385.857 320.199 386.026 320.154 386.198 320.126 386.372 320.096 386.547 320.084 386.723 320.09 386.898 320.094 387.072 320.115 387.243 320.154 387.415 320.192 387.581 320.246 387.742 320.316 387.903 320.386 388.056 320.472 388.2 320.572 388.345 320.673 388.479 320.785 388.602 320.911 388.724 321.037 388.834 321.173 388.931 321.32ZM384.132 314.062 384.483 314.59C384.582 314.741 384.666 314.9 384.732 315.068 384.799 315.235 384.85 315.408 384.883 315.586 384.916 315.764 384.931 315.943 384.929 316.124 384.926 316.304 384.907 316.483 384.869 316.66 384.832 316.835 384.777 317.008 384.705 317.174 384.633 317.339 384.546 317.496 384.444 317.645 384.341 317.793 384.224 317.931 384.095 318.057 383.964 318.181 383.824 318.293 383.671 318.391L350.138 339.69C349.988 339.785 349.832 339.864 349.669 339.928 349.504 339.993 349.336 340.041 349.162 340.072 348.989 340.104 348.815 340.117 348.638 340.116 348.463 340.113 348.289 340.093 348.117 340.057 347.943 340.021 347.776 339.969 347.615 339.9 347.451 339.833 347.297 339.749 347.152 339.65 347.005 339.552 346.87 339.44 346.746 339.316 346.621 339.191 346.509 339.056 346.412 338.91 346.313 338.76 346.23 338.603 346.164 338.436 346.097 338.27 346.047 338.099 346.014 337.924 345.98 337.747 345.965 337.57 345.967 337.392 345.968 337.212 345.986 337.035 346.022 336.86 346.059 336.685 346.112 336.514 346.181 336.349 346.251 336.184 346.335 336.028 346.436 335.88 346.536 335.732 346.65 335.595 346.777 335.47 346.904 335.344 347.042 335.231 347.192 335.132L380.385 313.292C380.535 313.196 380.691 313.115 380.856 313.051 381.02 312.985 381.19 312.935 381.363 312.902 381.537 312.87 381.713 312.855 381.889 312.856 382.068 312.858 382.243 312.876 382.415 312.911 382.589 312.947 382.757 313 382.92 313.067 383.083 313.136 383.239 313.22 383.386 313.319 383.533 313.416 383.669 313.529 383.795 313.655 383.921 313.779 384.033 313.915 384.132 314.062ZM379.341 306.809 379.687 307.336C379.784 307.485 379.867 307.642 379.934 307.807 380 307.972 380.051 308.142 380.084 308.316 380.117 308.492 380.133 308.668 380.133 308.847 380.132 309.023 380.114 309.2 380.079 309.376 380.043 309.549 379.991 309.719 379.924 309.883 379.855 310.048 379.771 310.204 379.673 310.352 379.574 310.499 379.462 310.637 379.336 310.763 379.21 310.889 379.074 311.003 378.926 311.102L345.889 333.156C345.739 333.254 345.581 333.336 345.415 333.403 345.249 333.469 345.078 333.52 344.903 333.553 344.727 333.586 344.551 333.603 344.371 333.601 344.193 333.6 344.016 333.582 343.84 333.544 343.665 333.508 343.496 333.456 343.331 333.385 343.166 333.317 343.01 333.231 342.862 333.131 342.714 333.03 342.577 332.917 342.452 332.789 342.326 332.662 342.213 332.524 342.114 332.374 342.019 332.227 341.936 332.072 341.87 331.908 341.804 331.745 341.753 331.577 341.719 331.405 341.686 331.231 341.668 331.057 341.668 330.88 341.668 330.705 341.684 330.53 341.717 330.357 341.75 330.184 341.8 330.016 341.866 329.853 341.932 329.689 342.013 329.533 342.108 329.385 342.204 329.238 342.314 329.1 342.437 328.973 342.559 328.847 342.693 328.733 342.837 328.633L375.532 306.054C375.68 305.953 375.839 305.868 376.006 305.798 376.172 305.727 376.344 305.675 376.521 305.639 376.698 305.603 376.876 305.585 377.056 305.585 377.237 305.583 377.415 305.601 377.592 305.636 377.771 305.672 377.941 305.723 378.109 305.793 378.275 305.862 378.434 305.946 378.584 306.048 378.734 306.148 378.872 306.262 378.999 306.391 379.126 306.518 379.24 306.658 379.341 306.809ZM338.486 322.18 370.682 298.876C370.831 298.768 370.988 298.678 371.156 298.601 371.322 298.526 371.496 298.47 371.674 298.429 371.852 298.389 372.034 298.368 372.216 298.363 372.401 298.359 372.582 298.374 372.762 298.407 372.942 298.44 373.117 298.491 373.288 298.558 373.457 298.625 373.619 298.711 373.772 298.811 373.924 298.912 374.067 299.027 374.197 299.156 374.328 299.285 374.443 299.425 374.545 299.578L374.888 300.101C374.984 300.248 375.065 300.402 375.132 300.566 375.198 300.727 375.247 300.895 375.282 301.066 375.316 301.238 375.334 301.412 375.334 301.587 375.336 301.763 375.319 301.937 375.286 302.109 375.255 302.281 375.206 302.449 375.141 302.612 375.075 302.776 374.996 302.93 374.901 303.078 374.807 303.225 374.699 303.363 374.578 303.49 374.456 303.616 374.325 303.73 374.182 303.832L341.639 326.609C341.493 326.694 341.34 326.765 341.181 326.822 341.022 326.877 340.859 326.919 340.693 326.946 340.526 326.971 340.358 326.982 340.189 326.977 340.021 326.973 339.854 326.952 339.689 326.916 339.524 326.881 339.364 326.831 339.209 326.765 339.053 326.699 338.905 326.621 338.764 326.526 338.623 326.433 338.492 326.329 338.37 326.212 338.249 326.095 338.14 325.967 338.042 325.83 337.943 325.692 337.859 325.546 337.789 325.392 337.719 325.239 337.662 325.081 337.62 324.917 337.579 324.754 337.552 324.588 337.542 324.418 337.531 324.25 337.536 324.081 337.557 323.915 337.576 323.747 337.612 323.582 337.663 323.42 337.714 323.26 337.778 323.104 337.858 322.956 337.937 322.806 338.03 322.667 338.137 322.535 338.241 322.403 338.358 322.282 338.486 322.171Z" fill="#333333" transform="matrix(1.00228 0 0 1 304.567 42.5066)"/><g clip-path="url(#clip13)"><path d="M250.593 388.632 209.969 413.457C209.969 413.457 202.305 418.994 207.238 426.432 212.17 433.869 220.228 428.952 220.228 428.952L253.004 405.468C251.214 399.998 250.411 394.385 250.593 388.632ZM214.976 424.421C214.833 424.514 214.683 424.593 214.524 424.658 214.365 424.722 214.203 424.77 214.035 424.802 213.868 424.833 213.698 424.848 213.527 424.848 213.357 424.847 213.187 424.829 213.02 424.793 212.853 424.758 212.69 424.707 212.533 424.641 212.375 424.574 212.227 424.493 212.086 424.397 211.944 424.301 211.813 424.192 211.694 424.07 211.574 423.948 211.467 423.816 211.373 423.673 211.28 423.53 211.201 423.38 211.136 423.221 211.072 423.062 211.024 422.899 210.992 422.731 210.959 422.563 210.944 422.394 210.946 422.223 210.947 422.052 210.965 421.883 211 421.715 211.034 421.547 211.085 421.385 211.151 421.228 211.217 421.071 211.3 420.921 211.395 420.779 211.491 420.638 211.599 420.508 211.721 420.388 211.842 420.266 211.975 420.16 212.118 420.066 212.26 419.971 212.411 419.893 212.569 419.829 212.727 419.764 212.891 419.715 213.057 419.683 213.225 419.651 213.394 419.636 213.565 419.637 213.736 419.637 213.905 419.655 214.073 419.689 214.241 419.724 214.402 419.775 214.56 419.841 214.717 419.908 214.867 419.989 215.008 420.085 215.149 420.181 215.28 420.289 215.4 420.412 215.52 420.533 215.627 420.665 215.721 420.807 215.815 420.951 215.895 421.101 215.959 421.26 216.024 421.418 216.072 421.582 216.103 421.751 216.136 421.919 216.151 422.088 216.149 422.26 216.148 422.431 216.13 422.601 216.096 422.768 216.061 422.936 216.01 423.1 215.944 423.257 215.877 423.414 215.796 423.564 215.7 423.706 215.604 423.847 215.495 423.979 215.373 424.099 215.251 424.219 215.119 424.327 214.976 424.421Z" fill="#333333" transform="matrix(1.00228 0 0 1 304.567 42.5066)"/></g><g clip-path="url(#clip14)"><path d="M393.63 413.933 372.422 403.214C371.237 402.615 370.092 401.95 368.985 401.217L353.434 390.955C353.203 393.23 352.878 395.495 352.459 397.753 352.154 399.409 351.796 401.042 351.393 402.644L363.08 410.244C364.192 410.966 365.257 411.747 366.28 412.589L384.577 427.78C384.94 428.081 385.323 428.356 385.725 428.603 386.128 428.85 386.544 429.069 386.977 429.257 387.41 429.446 387.854 429.604 388.309 429.729 388.763 429.857 389.225 429.951 389.694 430.013 390.161 430.074 390.632 430.103 391.104 430.098 391.576 430.094 392.045 430.058 392.512 429.987 392.978 429.917 393.438 429.813 393.891 429.68 394.343 429.545 394.784 429.379 395.214 429.183L399.115 427.409 399.19 423.131C399.197 422.659 399.172 422.187 399.114 421.718 399.055 421.248 398.964 420.785 398.841 420.329 398.717 419.872 398.562 419.426 398.376 418.991 398.191 418.557 397.976 418.136 397.731 417.731 397.486 417.327 397.215 416.942 396.916 416.575 396.617 416.207 396.294 415.864 395.948 415.542 395.6 415.222 395.233 414.926 394.845 414.657 394.457 414.387 394.051 414.146 393.63 413.933Z" fill="#333333" transform="matrix(1.00228 0 0 1 304.567 42.5066)"/></g><path d="M256.357 344.507C249.064 342.288 223.134 324.633 206.547 319.375L247.128 348.632C249.088 350.045 251.19 351.196 253.436 352.084 255.68 352.973 258.001 353.572 260.395 353.882L262.085 350.909 263.1 354.108 263.279 354.108 268.543 354.261C272.001 354.364 275.335 355.063 278.544 356.354 279.402 346.519 272.233 331.249 268.949 325.496L266.018 320.359 269.92 322.117C268.745 321.142 267.502 320.264 266.189 319.484L223.173 293.949C234.626 307.07 261.159 323.792 266.096 329.593 266.453 330.011 266.782 330.452 267.084 330.91 267.386 331.37 267.659 331.847 267.902 332.34 268.144 332.834 268.356 333.341 268.535 333.86 268.717 334.38 268.864 334.909 268.977 335.447 269.091 335.985 269.172 336.529 269.22 337.077 269.267 337.624 269.28 338.174 269.258 338.724 269.237 339.274 269.181 339.819 269.093 340.363 269.004 340.905 268.882 341.44 268.726 341.968 268.306 342.321 267.864 342.648 267.404 342.946 266.943 343.244 266.465 343.514 265.97 343.752 265.476 343.992 264.969 344.2 264.45 344.375 263.93 344.552 263.401 344.695 262.863 344.805 262.325 344.916 261.783 344.993 261.234 345.036 260.687 345.078 260.139 345.087 259.591 345.062 259.042 345.038 258.498 344.978 257.956 344.885 257.415 344.792 256.882 344.666 256.357 344.507Z" fill="#333333" transform="matrix(1.00228 0 0 1 304.567 42.5066)"/><g clip-path="url(#clip15)"><path d="M330.335 328.633C332.972 341.054 327.385 352.605 325.289 356.366 327.697 351.789 333.721 335.519 309.732 318.328 281.4 298.016 294.276 276.102 300.395 264.501 300.395 264.501 279.62 274.266 277.688 300.891 275.757 327.515 293.14 326.246 288.205 346.226 287.526 332.136 270.606 324.528 270.606 324.528 270.606 324.528 292.372 362.71 271.465 367.065 265.612 368.288 261.594 355.678 261.594 355.678 261.594 355.678 228.988 413.046 287.128 434.1 266.955 416.483 274.037 406.6 283.265 396.288 292.493 385.975 288.845 375.874 288.845 375.874 288.845 375.874 301.292 386.621 296.571 410.898 307.497 392.206 304.511 364.917 293.566 349.234 307.945 353.746 321.037 372.67 322.757 399.081 322.757 399.081 328.122 387.049 325.332 374.585 332.843 381.68 347.964 402.733 326.137 436.693 350.661 425.507 367.353 366.336 330.335 328.633Z" fill="#DA523F" transform="matrix(1.00228 0 0 1 304.567 42.5066)"/></g><g clip-path="url(#clip16)"><path d="M302.474 442.763 306.836 451.571 316.587 452.981 309.531 459.836 311.197 469.516 302.474 464.944 293.754 469.516 295.419 459.836 288.362 452.981 298.113 451.571Z" fill="#333333" transform="matrix(1.00228 0 0 1 304.567 42.5066)"/></g><g clip-path="url(#clip17)"><path d="M336.622 444.892 338.95 449.598 344.158 450.352 340.391 454.014 341.281 459.187 336.622 456.743 331.961 459.187 332.851 454.014 329.079 450.352 334.293 449.598Z" fill="#333333" transform="matrix(1.00228 0 0 1 304.567 42.5066)"/></g><g clip-path="url(#clip18)"><path d="M268.33 444.892 270.658 449.598 275.868 450.352 272.097 454.014 272.987 459.187 268.33 456.743 263.67 459.187 264.56 454.014 260.789 450.352 265.999 449.598Z" fill="#333333" transform="matrix(1.00228 0 0 1 304.567 42.5066)"/></g><path d="M-6.02908-23.6968C-4.37498-24.6752-2.95011-24.9988-1.75599-24.6677-0.564852-24.3396 0.491436-23.3972 1.41438-21.8389L1.84588-21.1198C2.46018-20.08 2.80478-19.1301 2.8767-18.267 2.94862-17.404 2.72687-16.5965 2.21146-15.8458 3.26925-16.0286 4.19668-15.8578 4.99227-15.3304 5.78636-14.803 6.50404-14.0014 7.1438-12.9272L8.12068-11.2791C9.04362-9.72384 9.34028-8.29748 9.01366-6.99997 8.69003-5.70545 7.73113-4.58624 6.13696-3.64382L1.15667-0.683216-10.8116-20.8561ZM-1.05479-11.6446 2.61899-5.44775 4.42892-6.52651C4.9683-6.84565 5.29193-7.2307 5.3998-7.68318 5.50768-8.13417 5.33987-8.73498 4.89638-9.48711L3.85358-11.2431C3.29322-12.1855 2.75234-12.7354 2.22944-12.8912 1.70954-13.05 1.08476-12.9152 0.353594-12.4837ZM-5.93319-19.8612-2.76882-14.5273-1.53424-15.2585C-0.934927-15.6136-0.558859-16.0451-0.407532-16.553-0.254708-17.0594-0.419519-17.7157-0.898969-18.5188L-1.5702-19.6515C-2.0017-20.3781-2.4422-20.8276-2.89468-20.9999-3.34566-21.1752-3.85058-21.0973-4.41094-20.7662Z" fill="#FFFFFF" transform="matrix(1.00228 0 0 1 498.379 301.582)"/><path d="M-1.25256-14.4195 3.32019-16.583 4.75255-13.5505 0.179794-11.3869 3.11642-5.17207 8.86982-7.89294 10.3022-4.86642 1.2166-0.57534-8.8039-21.785 0.281677-26.0761 1.71403-23.0436-4.03937-20.3227Z" fill="#FFFFFF" transform="matrix(1.00228 0 0 1 515.401 291.87)"/><path d="M-1.40838-17.5539 4.35101-1.5702 1.22859-0.443491-6.72428-22.5102-2.37328-24.0804 5.95716-12.1541 1.19263-25.3629 4.28508-26.4716 12.238-4.40495 8.67205-3.12242Z" fill="#FFFFFF" transform="matrix(1.00228 0 0 1 532.067 284.274)"/><path d="M-4.43491-23.0735 1.2226-24.4999C3.02053-24.9509 4.47836-24.8115 5.59758-24.0804 6.71529-23.3492 7.50639-22.0637 7.97085-20.2268L10.8715-8.71999C11.3345-6.87711 11.2461-5.36984 10.6078-4.19519 9.97256-3.02053 8.75595-2.20697 6.95802-1.75599L1.30051-0.329622ZM-0.0359587-20.7242 4.05734-4.47686 6.07103-4.98628C6.63439-5.12562 7.03743-5.3998 7.28165-5.80734 7.52437-6.21487 7.54235-6.82916 7.33558-7.65322L4.357-19.4836C4.14874-20.3017 3.84159-20.8336 3.43406-21.0778 3.02653-21.3205 2.54108-21.373 1.97773-21.2336Z" fill="#FFFFFF" transform="matrix(1.00228 0 0 1 551.247 277.71)"/><path d="M-2.57704-23.3492 1.05479-23.9605 4.95631-0.833044 1.32448-0.221746Z" fill="#FFFFFF" transform="matrix(1.00228 0 0 1 570.52 273.262)"/><path d="M-1.79794-23.3912 9.54705-24.428 9.8527-21.0898 6.0171-20.7362 7.845-0.713182 4.17121-0.38356 2.34331-20.4066-1.49229-20.053Z" fill="#FFFFFF" transform="matrix(1.00228 0 0 1 582.867 271.311)"/><path d="M4.72857-5.38782C4.72857-4.53979 4.90238-3.94348 5.24998-3.59587 5.59758-3.24827 6.06055-3.07148 6.64038-3.06848 7.22321-3.06848 7.68618-3.24228 8.03079-3.58988 8.37839-3.93748 8.55219-4.5338 8.55219-5.38182L8.57616-18.0513C8.57616-18.9023 8.40236-19.4986 8.05476-19.8432 7.71015-20.1908 7.24718-20.3646 6.66435-20.3646 6.08452-20.3676 5.62155-20.1968 5.27395-19.8492 4.92635-19.5046 4.75255-18.9083 4.75255-18.0573ZM1.06078-17.8295C1.06378-19.7264 1.54772-21.1827 2.51112-22.1985 3.47302-23.2129 4.86042-23.7178 6.67035-23.7148 8.48027-23.7148 9.86468-23.2054 10.8236-22.1865 11.7825-21.1677 12.2589-19.7084 12.2559-17.8116L12.238-5.60956C12.238-3.71124 11.7555-2.25491 10.7936-1.24058 9.83022-0.224742 8.44431 0.281677 6.63439 0.281677 4.82446 0.277182 3.44005-0.233732 2.48115-1.25256 1.52225-2.27139 1.0428-3.72922 1.0428-5.62754Z" fill="#FFFFFF" transform="matrix(1.00228 0 0 1 600.89 269.919)"/><path d="M3.55392-17.4939C3.84159-19.3668 4.50833-20.7377 5.55563-21.6052 6.60592-22.4712 8.02629-22.7694 9.81674-22.4982 11.6057-22.2225 12.8702-21.5123 13.6104-20.3706 14.349-19.2319 14.5753-17.7247 14.2876-15.8518L14.1558-14.9528 10.7157-15.4802 10.8835-16.6069C11.0154-17.449 10.9449-18.0648 10.6738-18.4528 10.4056-18.8439 9.98604-19.0836 9.4152-19.172 8.83986-19.2589 8.3664-19.157 7.99483-18.8664 7.62325-18.5742 7.37154-18.0063 7.23969-17.1643 7.11983-16.3732 7.18725-15.645 7.44346-14.9828 7.70266-14.3191 8.05626-13.6763 8.50424-13.053 8.95522-12.4297 9.44217-11.8005 9.96656-11.1652 10.4895-10.5329 10.9674-9.85569 11.3989-9.13352 11.8304-8.41435 12.16-7.61876 12.3878-6.74826 12.6185-5.87626 12.6485-4.88739 12.4777-3.78166 12.19-1.90731 11.5098-0.539381 10.44 0.323629 9.37325 1.18963 7.94389 1.48629 6.15494 1.21061 4.36449 0.937924 3.08796 0.230735 2.32533-0.910955 1.5657-2.05714 1.33047-3.56741 1.61814-5.44176L1.86386-7.03593 5.30391-6.50853 5.02224-4.68662C4.89338-3.84759 4.97579-3.23629 5.26796-2.85273 5.56312-2.46917 5.99612-2.23244 6.56846-2.14554 7.13931-2.05714 7.62026-2.15303 8.01281-2.43321 8.40835-2.71189 8.66905-3.27225 8.79791-4.11128 8.92076-4.90537 8.85334-5.63354 8.59414-6.29278 8.33344-6.95502 7.97984-7.59928 7.53336-8.22257 7.08537-8.84585 6.59843-9.47213 6.07103-10.1044 5.54664-10.7352 5.07018-11.4124 4.63868-12.1361 4.20717-12.8627 3.87455-13.6598 3.64382-14.5273 3.41608-15.3978 3.38611-16.3867 3.55392-17.4939Z" fill="#FFFFFF" transform="matrix(1.00228 0 0 1 631.592 271.303)"/><path d="M12.8672 3.23629 9.26537 2.33133 9.67889-1.95376 5.29792-3.05649 3.63783 0.916948 0.359587 0.0898969 9.72085-21.7431 14.9528-20.4246ZM6.52651-6.02309 9.97855-5.15409 11.1472-17.1044Z" fill="#FFFFFF" transform="matrix(1.00228 0 0 1 649.87 274.354)"/><path d="M14.4075-19.7593C16.2174-19.1121 17.3741-18.2221 17.8775-17.0924 18.3839-15.9612 18.333-14.5453 17.7217-12.8433L17.44-12.0522C17.0325-10.9165 16.5185-10.046 15.8998-9.43917 15.284-8.83087 14.5228-8.48776 13.6164-8.40835 14.4344-7.71315 14.8944-6.8891 14.9948-5.93919 15.0937-4.98778 14.9319-3.9225 14.5094-2.74485L13.8681-0.946914C13.2568 0.75813 12.3473 1.89982 11.1412 2.47516 9.9381 3.0535 8.46379 3.02952 6.71829 2.40324L1.26455 0.449484 9.16948-21.6352ZM8.28849-8.24055 5.86127-1.45633 7.845-0.74914C8.43532-0.536385 8.94174-0.534886 9.36126-0.743147 9.78078-0.94991 10.1359-1.46382 10.428-2.28338L11.1172-4.20717C11.4888-5.23799 11.5667-6.00511 11.351-6.50853 11.1382-7.01195 10.6333-7.4045 9.83472-7.68918ZM11.5068-17.2362 9.42119-11.3989 10.7756-10.9195C11.4304-10.6827 11.9997-10.6678 12.4837-10.8715 12.9706-11.0783 13.3722-11.6222 13.6883-12.5017L14.1318-13.7362C14.415-14.5348 14.4794-15.1641 14.3236-15.6241 14.1677-16.0825 13.7857-16.4227 13.1789-16.6429Z" fill="#FFFFFF" transform="matrix(1.00228 0 0 1 668.824 279.411)"/><path d="M6.56846-2.86471C6.20888-2.10059 6.10999-1.48779 6.2748-1.02482 6.44261-0.560357 6.79021-0.206763 7.3176 0.0359587 7.845 0.283175 8.33793 0.323629 8.79791 0.155821 9.25638-0.0119862 9.66691-0.476454 10.0265-1.24058L15.4203-12.7054C15.7829-13.4755 15.8833-14.0913 15.72-14.5513 15.5552-15.0098 15.2105-15.3634 14.6832-15.6121 14.1558-15.8548 13.6598-15.8953 13.1969-15.7319 12.7369-15.5671 12.3249-15.0997 11.9623-14.3296ZM8.53421-15.69C9.34028-17.407 10.3951-18.5217 11.6986-19.0342 13.0006-19.5451 14.4704-19.4147 16.1095-18.6446 17.7471-17.873 18.7839-16.8227 19.2199-15.4922 19.6544-14.1647 19.4687-12.6425 18.6626-10.9255L13.4665 0.113869C12.659 1.8309 11.6042 2.94562 10.3022 3.45803 8.99868 3.96895 7.52886 3.8386 5.89124 3.06848 4.25212 2.29686 3.21531 1.24807 2.78081-0.0779106 2.34481-1.40838 2.5306-2.93214 3.33817-4.65066Z" fill="#FFFFFF" transform="matrix(1.00228 0 0 1 687.169 286.273)"/><path d="M7.77907 4.6207C7.82252 4.46038 7.85848 4.31055 7.88695 4.17121 7.91392 4.03487 7.96636 3.87156 8.04277 3.67978 8.11769 3.49099 8.23006 3.26026 8.37839 2.98458 8.52522 2.71189 8.72149 2.37328 8.96571 1.96574L10.8416-1.19862C11.4004-2.14104 11.6327-2.90217 11.5368-3.482 11.4409-4.06034 11.0273-4.56826 10.2962-5.00426L9.19944-5.65152 4.32104 2.56506 1.15667 0.683216 13.1309-19.4896 17.9134-16.6489C19.5631-15.666 20.5294-14.5708 20.8141-13.3647 21.0973-12.1571 20.7752-10.7771 19.8492-9.22342L18.9143-7.64123C17.6797-5.56312 16.1769-4.60572 14.4075-4.77053 15.0188-3.96295 15.254-3.10144 15.1147-2.18749 14.9738-1.27654 14.5903-0.290666 13.964 0.76712L12.1121 3.88354C11.8154 4.37798 11.5757 4.82446 11.3929 5.22001 11.2086 5.61855 11.0813 6.05605 11.0094 6.5325ZM14.5873-14.7251 10.9075-8.52821 12.1481-7.79106C12.7429-7.43447 13.2987-7.31161 13.8141-7.41949 14.3326-7.53036 14.833-7.99033 15.3124-8.79791L16.4931-10.7876C16.9276-11.5188 17.1119-12.1241 17.0444-12.6035 16.98-13.083 16.6699-13.4875 16.1155-13.8201Z" fill="#FFFFFF" transform="matrix(1.00228 0 0 1 704.475 294.706)"/><path d="M2.83475 0.869003 0.755134 0.233732 4.82446-12.9991 6.90408-12.3638 5.16008-6.69432 7.52736-5.96316 9.27136-11.6327 11.3869-10.9854 7.3176 2.24742 5.20203 1.60016 6.94603-4.06933 4.57875-4.80049Z" fill="#FFFFFF" transform="matrix(1.00228 0 0 1 549.369 550.186)"/><path d="M3.44005-2.46317C3.32768-1.97473 3.34716-1.60766 3.49998-1.36044 3.65131-1.11622 3.89253-0.955903 4.22515-0.880989 4.55627-0.800082 4.84544-0.836041 5.09416-0.988865 5.34587-1.14019 5.52716-1.45933 5.63953-1.94777L7.34757-9.22941C7.46294-9.71635 7.44346-10.0819 7.28764-10.3262 7.13182-10.5689 6.8876-10.7307 6.55648-10.8116 6.22386-10.8865 5.93469-10.8491 5.68747-10.6977 5.44325-10.5494 5.26346-10.2318 5.14809-9.74482ZM2.99656-10.1104C3.25127-11.1967 3.72323-11.9653 4.41094-12.4178 5.10165-12.8732 5.96616-12.9781 7.00596-12.7354 8.04877-12.4912 8.77693-12.0117 9.19345-11.297 9.60848-10.5854 9.68788-9.68639 9.43318-8.60013L7.78507-1.58218C7.53336-0.494433 7.0614 0.272687 6.37069 0.725168 5.68298 1.18065 4.81847 1.28552 3.77567 1.0428 2.73586 0.798584 2.00919 0.320632 1.59417-0.389553 1.17765-1.10423 1.09674-2.0047 1.34845-3.09245Z" fill="#FFFFFF" transform="matrix(1.00228 0 0 1 561.571 553.766)"/><path d="M2.48715-13.6224 9.11554-12.5076 8.79191-10.5599 6.55048-10.9375 4.58474 0.76712 2.4392 0.407532 4.40495-11.297 2.16352-11.6746Z" fill="#FFFFFF" transform="matrix(1.00228 0 0 1 573.372 556.376)"/><path d="M1.07876-4.357C1.12221-5.06419 1.27654-5.65751 1.54023-6.13696 1.80393-6.61941 2.20847-6.96101 2.75684-7.16178 1.78595-7.64423 1.34546-8.6241 1.43835-10.0984L1.45034-10.3561C1.52225-11.4738 1.84139-12.3054 2.40924-12.8493 2.98008-13.3961 3.81312-13.6359 4.90837-13.5684L7.38952-13.4186 7.26367-11.4409 4.81847-11.5907C4.47387-11.6102 4.19668-11.5263 3.98543-11.339 3.77717-11.1547 3.6573-10.8146 3.62584-10.3202L3.57789-9.46914C3.54194-8.91327 3.63333-8.52372 3.85358-8.30048 4.07233-8.07573 4.38697-7.95288 4.7945-7.9289L5.74141-7.86897 5.83131-9.4092 8.00681-9.27736 7.91692-7.73712 8.48027-7.70116 8.35441-5.72943 7.79106-5.76539 7.50938-1.2226C7.48841-0.882487 7.48241-0.582831 7.4914-0.323629 7.50339-0.0629276 7.55283 0.20077 7.64123 0.473457L5.42977 0.335615C5.38182 0.187285 5.34886 0.0434501 5.33388-0.09589 5.3174-0.239725 5.30541-0.462969 5.29792-0.76712 4.86642 0.0389551 4.16822 0.413526 3.20632 0.353594 2.40324 0.305649 1.81741 0 1.45034-0.563354 1.08176-1.1297 0.930432-1.92679 0.994859-2.95461ZM3.17636-2.99057C3.14339-2.49014 3.2243-2.13355 3.41608-1.9178 3.61086-1.70205 3.87905-1.58368 4.21916-1.56421 4.55028-1.54323 4.81847-1.61814 5.02224-1.78595 5.229-1.95675 5.36085-2.26091 5.41778-2.69691L5.61556-5.89723 4.78851-5.95117C4.28808-5.97814 3.91651-5.86727 3.67378-5.61556 3.43406-5.36684 3.29322-4.92185 3.25427-4.27909Z" fill="#FFFFFF" transform="matrix(1.00228 0 0 1 591.783 558.881)"/><path d="M-0.395546-13.8381 6.32275-14.1258 6.40665-12.1481 4.13526-12.0522 4.64467-0.197773 2.47516-0.107876 1.96574-11.9623-0.311642-11.8604Z" fill="#FFFFFF" transform="matrix(1.00228 0 0 1 611.423 559.468)"/><path d="M7.78507-0.839037 5.60956-0.605305 4.96231-3.06249 2.30735-2.77482 2.20547-0.239725 0.215752-0.0239725 0.934927-14.0299 4.0993-14.3655ZM2.37927-4.67464 4.45888-4.90238 2.66694-11.7465Z" fill="#FFFFFF" transform="matrix(1.00228 0 0 1 622.784 558.862)"/><path d="M-1.30051-10.458C-1.49229-11.5607-1.37542-12.4507-0.952907-13.1309-0.533388-13.8141 0.20077-14.2472 1.25256-14.4314 2.30735-14.6142 3.14789-14.4569 3.77567-13.958 4.40644-13.4621 4.81847-12.6635 5.01025-11.5607L5.10015-11.0333 3.07447-10.6797 2.9606-11.339C2.8722-11.8334 2.71638-12.163 2.49314-12.3279 2.2684-12.4957 1.98972-12.5496 1.6541-12.4897 1.31849-12.4327 1.07277-12.2874 0.916948-12.0522 0.761127-11.8199 0.726666-11.4559 0.815065-10.9614 0.894474-10.494 1.06977-10.0984 1.34246-9.77479 1.61365-9.45415 1.93128-9.16349 2.29537-8.89979 2.66245-8.63909 3.052-8.38138 3.46403-8.12668 3.87905-7.87047 4.2746-7.5813 4.65066-7.25767 5.02973-6.93704 5.36534-6.55348 5.65751-6.10699 5.94817-5.65901 6.15194-5.11213 6.26881-4.46488 6.46059-3.36214 6.33623-2.46617 5.89723-1.77996 5.46123-1.09674 4.71809-0.66224 3.66779-0.47945 2.616-0.295161 1.76947-0.450982 1.12671-0.946914 0.486941-1.44584 0.0719175-2.24742-0.119862-3.35016L-0.28767-4.28508 1.73801-4.63868 1.92979-3.56591C2.01369-3.07447 2.17101-2.74785 2.40324-2.58903 2.63847-2.42871 2.92614-2.37627 3.26625-2.43321 3.60486-2.49314 3.85658-2.63847 4.02139-2.87071 4.18919-3.10144 4.23115-3.46403 4.14724-3.95546 4.06334-4.42293 3.88654-4.81847 3.61985-5.1421 3.35165-5.46573 3.03252-5.75639 2.66095-6.0171 2.29237-6.2763 1.90282-6.534 1.49229-6.79021 1.08026-7.04941 0.684714-7.33858 0.305649-7.65921-0.0734157-7.98284-0.407532-8.3664-0.695202-8.80989-0.985869-9.25638-1.18814-9.80625-1.30051-10.458Z" fill="#FFFFFF" transform="matrix(1.00228 0 0 1 635.009 557.397)"/><path d="M-3.04451-13.5085 3.49399-15.0787 3.96145-13.1549 1.75599-12.6215 4.52481-1.08476 2.40924-0.57534-0.359587-12.1121-2.57704-11.5847Z" fill="#FFFFFF" transform="matrix(1.00228 0 0 1 646.457 555.263)"/><path d="M1.34845-5.22001-4.01539-13.2508-1.83989-13.922 1.61215-8.38438 1.33647-14.9049 3.32019-15.5162 3.42807-5.86727 4.78251-1.4803 2.7029-0.833044Z" fill="#FFFFFF" transform="matrix(1.00228 0 0 1 657.488 552.492)"/><path d="M2.83475 0.869003 0.755134 0.233732 4.82446-12.9991 6.90408-12.3638 5.16008-6.69432 7.52736-5.96316 9.27136-11.6327 11.3869-10.9854 7.3176 2.24742 5.20203 1.60016 6.94603-4.06933 4.57875-4.80049Z" fill="#FFFFFF" transform="matrix(1.00228 0 0 1 549.369 550.186)"/><path d="M3.44005-2.46317C3.32768-1.97473 3.34716-1.60766 3.49998-1.36044 3.65131-1.11622 3.89253-0.955903 4.22515-0.880989 4.55627-0.800082 4.84544-0.836041 5.09416-0.988865 5.34587-1.14019 5.52716-1.45933 5.63953-1.94777L7.34757-9.22941C7.46294-9.71635 7.44346-10.0819 7.28764-10.3262 7.13182-10.5689 6.8876-10.7307 6.55648-10.8116 6.22386-10.8865 5.93469-10.8491 5.68747-10.6977 5.44325-10.5494 5.26346-10.2318 5.14809-9.74482ZM2.99656-10.1104C3.25127-11.1967 3.72323-11.9653 4.41094-12.4178 5.10165-12.8732 5.96616-12.9781 7.00596-12.7354 8.04877-12.4912 8.77693-12.0117 9.19345-11.297 9.60848-10.5854 9.68788-9.68639 9.43318-8.60013L7.78507-1.58218C7.53336-0.494433 7.0614 0.272687 6.37069 0.725168 5.68298 1.18065 4.81847 1.28552 3.77567 1.0428 2.73586 0.798584 2.00919 0.320632 1.59417-0.389553 1.17765-1.10423 1.09674-2.0047 1.34845-3.09245Z" fill="#FFFFFF" transform="matrix(1.00228 0 0 1 561.571 553.766)"/><path d="M2.48715-13.6224 9.11554-12.5076 8.79191-10.5599 6.55048-10.9375 4.58474 0.76712 2.4392 0.407532 4.40495-11.297 2.16352-11.6746Z" fill="#FFFFFF" transform="matrix(1.00228 0 0 1 573.372 556.376)"/><path d="M1.07876-4.357C1.12221-5.06419 1.27654-5.65751 1.54023-6.13696 1.80393-6.61941 2.20847-6.96101 2.75684-7.16178 1.78595-7.64423 1.34546-8.6241 1.43835-10.0984L1.45034-10.3561C1.52225-11.4738 1.84139-12.3054 2.40924-12.8493 2.98008-13.3961 3.81312-13.6359 4.90837-13.5684L7.38952-13.4186 7.26367-11.4409 4.81847-11.5907C4.47387-11.6102 4.19668-11.5263 3.98543-11.339 3.77717-11.1547 3.6573-10.8146 3.62584-10.3202L3.57789-9.46914C3.54194-8.91327 3.63333-8.52372 3.85358-8.30048 4.07233-8.07573 4.38697-7.95288 4.7945-7.9289L5.74141-7.86897 5.83131-9.4092 8.00681-9.27736 7.91692-7.73712 8.48027-7.70116 8.35441-5.72943 7.79106-5.76539 7.50938-1.2226C7.48841-0.882487 7.48241-0.582831 7.4914-0.323629 7.50339-0.0629276 7.55283 0.20077 7.64123 0.473457L5.42977 0.335615C5.38182 0.187285 5.34886 0.0434501 5.33388-0.09589 5.3174-0.239725 5.30541-0.462969 5.29792-0.76712 4.86642 0.0389551 4.16822 0.413526 3.20632 0.353594 2.40324 0.305649 1.81741 0 1.45034-0.563354 1.08176-1.1297 0.930432-1.92679 0.994859-2.95461ZM3.17636-2.99057C3.14339-2.49014 3.2243-2.13355 3.41608-1.9178 3.61086-1.70205 3.87905-1.58368 4.21916-1.56421 4.55028-1.54323 4.81847-1.61814 5.02224-1.78595 5.229-1.95675 5.36085-2.26091 5.41778-2.69691L5.61556-5.89723 4.78851-5.95117C4.28808-5.97814 3.91651-5.86727 3.67378-5.61556 3.43406-5.36684 3.29322-4.92185 3.25427-4.27909Z" fill="#FFFFFF" transform="matrix(1.00228 0 0 1 591.783 558.881)"/><path d="M-0.395546-13.8381 6.32275-14.1258 6.40665-12.1481 4.13526-12.0522 4.64467-0.197773 2.47516-0.107876 1.96574-11.9623-0.311642-11.8604Z" fill="#FFFFFF" transform="matrix(1.00228 0 0 1 611.423 559.468)"/><path d="M7.78507-0.839037 5.60956-0.605305 4.96231-3.06249 2.30735-2.77482 2.20547-0.239725 0.215752-0.0239725 0.934927-14.0299 4.0993-14.3655ZM2.37927-4.67464 4.45888-4.90238 2.66694-11.7465Z" fill="#FFFFFF" transform="matrix(1.00228 0 0 1 622.784 558.862)"/><path d="M-1.30051-10.458C-1.49229-11.5607-1.37542-12.4507-0.952907-13.1309-0.533388-13.8141 0.20077-14.2472 1.25256-14.4314 2.30735-14.6142 3.14789-14.4569 3.77567-13.958 4.40644-13.4621 4.81847-12.6635 5.01025-11.5607L5.10015-11.0333 3.07447-10.6797 2.9606-11.339C2.8722-11.8334 2.71638-12.163 2.49314-12.3279 2.2684-12.4957 1.98972-12.5496 1.6541-12.4897 1.31849-12.4327 1.07277-12.2874 0.916948-12.0522 0.761127-11.8199 0.726666-11.4559 0.815065-10.9614 0.894474-10.494 1.06977-10.0984 1.34246-9.77479 1.61365-9.45415 1.93128-9.16349 2.29537-8.89979 2.66245-8.63909 3.052-8.38138 3.46403-8.12668 3.87905-7.87047 4.2746-7.5813 4.65066-7.25767 5.02973-6.93704 5.36534-6.55348 5.65751-6.10699 5.94817-5.65901 6.15194-5.11213 6.26881-4.46488 6.46059-3.36214 6.33623-2.46617 5.89723-1.77996 5.46123-1.09674 4.71809-0.66224 3.66779-0.47945 2.616-0.295161 1.76947-0.450982 1.12671-0.946914 0.486941-1.44584 0.0719175-2.24742-0.119862-3.35016L-0.28767-4.28508 1.73801-4.63868 1.92979-3.56591C2.01369-3.07447 2.17101-2.74785 2.40324-2.58903 2.63847-2.42871 2.92614-2.37627 3.26625-2.43321 3.60486-2.49314 3.85658-2.63847 4.02139-2.87071 4.18919-3.10144 4.23115-3.46403 4.14724-3.95546 4.06334-4.42293 3.88654-4.81847 3.61985-5.1421 3.35165-5.46573 3.03252-5.75639 2.66095-6.0171 2.29237-6.2763 1.90282-6.534 1.49229-6.79021 1.08026-7.04941 0.684714-7.33858 0.305649-7.65921-0.0734157-7.98284-0.407532-8.3664-0.695202-8.80989-0.985869-9.25638-1.18814-9.80625-1.30051-10.458Z" fill="#FFFFFF" transform="matrix(1.00228 0 0 1 635.009 557.397)"/><path d="M-3.04451-13.5085 3.49399-15.0787 3.96145-13.1549 1.75599-12.6215 4.52481-1.08476 2.40924-0.57534-0.359587-12.1121-2.57704-11.5847Z" fill="#FFFFFF" transform="matrix(1.00228 0 0 1 646.457 555.263)"/><path d="M1.34845-5.22001-4.01539-13.2508-1.83989-13.922 1.61215-8.38438 1.33647-14.9049 3.32019-15.5162 3.42807-5.86727 4.78251-1.4803 2.7029-0.833044Z" fill="#FFFFFF" transform="matrix(1.00228 0 0 1 657.488 552.492)"/><path d="M3.45204-19.5556C4.13076-19.5556 4.68812-19.629 5.12412-19.7773 5.56312-19.9241 5.92121-20.1264 6.19689-20.3826 6.47557-20.6373 6.70031-20.9355 6.86812-21.2756 7.03892-21.6187 7.18875-21.9828 7.3176-22.3663L9.67889-22.3663 9.67889 0 6.16692 0 6.16692-17.0624 3.45204-17.0624Z" fill="#FFFFFF" transform="matrix(1.00228 0 0 1 455.477 421.18)"/><path d="M11.5967-5.56162C11.5967-3.6633 11.1592-2.21895 10.2842-1.22859 9.4122-0.236729 8.06225 0.257704 6.23285 0.257704 4.50683 0.257704 3.20033-0.224742 2.31335-1.19263 1.42936-2.16352 0.988865-3.55542 0.988865-5.36984L0.988865-5.94518 4.31505-5.94518 4.31505-5.1421C4.31505-4.33453 4.47836-3.76518 4.80649-3.43406 5.13761-3.10144 5.5811-2.93663 6.13696-2.93663 6.75125-2.93663 7.22921-3.12841 7.56931-3.51197 7.91242-3.89553 8.08472-4.6207 8.08472-5.68747L8.08472-9.77479C7.46444-8.4563 6.37818-7.79705 4.82446-7.79705 3.52545-7.79705 2.55007-8.23155 1.89982-9.10355 1.25256-9.97855 0.928934-11.2461 0.928934-12.9092L0.928934-16.9965C0.928934-18.8064 1.38591-20.1938 2.30136-21.1617 3.21531-22.1326 4.53679-22.618 6.26281-22.618 7.98883-22.618 9.30882-22.1326 10.2243-21.1617 11.1382-20.1938 11.5967-18.8064 11.5967-16.9965ZM6.26281-10.9914C6.81418-10.9914 7.25468-11.1547 7.58729-11.4828 7.91841-11.8139 8.08472-12.3848 8.08472-13.1969L8.08472-17.2182C8.08472-18.0288 7.91841-18.5937 7.58729-18.9143 7.25468-19.2334 6.81418-19.3937 6.26281-19.3937 5.70695-19.3937 5.26346-19.2334 4.93234-18.9143 4.60422-18.5937 4.4409-18.0288 4.4409-17.2182L4.4409-13.1969C4.4409-12.3848 4.60422-11.8139 4.93234-11.4828 5.26346-11.1547 5.70695-10.9914 6.26281-10.9914Z" fill="#FFFFFF" transform="matrix(1.00228 0 0 1 471.354 421.18)"/><path d="M11.5967-5.56162C11.5967-3.6633 11.1592-2.21895 10.2842-1.22859 9.4122-0.236729 8.06225 0.257704 6.23285 0.257704 4.50683 0.257704 3.20033-0.224742 2.31335-1.19263 1.42936-2.16352 0.988865-3.55542 0.988865-5.36984L0.988865-5.94518 4.31505-5.94518 4.31505-5.1421C4.31505-4.33453 4.47836-3.76518 4.80649-3.43406 5.13761-3.10144 5.5811-2.93663 6.13696-2.93663 6.75125-2.93663 7.22921-3.12841 7.56931-3.51197 7.91242-3.89553 8.08472-4.6207 8.08472-5.68747L8.08472-9.77479C7.46444-8.4563 6.37818-7.79705 4.82446-7.79705 3.52545-7.79705 2.55007-8.23155 1.89982-9.10355 1.25256-9.97855 0.928934-11.2461 0.928934-12.9092L0.928934-16.9965C0.928934-18.8064 1.38591-20.1938 2.30136-21.1617 3.21531-22.1326 4.53679-22.618 6.26281-22.618 7.98883-22.618 9.30882-22.1326 10.2243-21.1617 11.1382-20.1938 11.5967-18.8064 11.5967-16.9965ZM6.26281-10.9914C6.81418-10.9914 7.25468-11.1547 7.58729-11.4828 7.91841-11.8139 8.08472-12.3848 8.08472-13.1969L8.08472-17.2182C8.08472-18.0288 7.91841-18.5937 7.58729-18.9143 7.25468-19.2334 6.81418-19.3937 6.26281-19.3937 5.70695-19.3937 5.26346-19.2334 4.93234-18.9143 4.60422-18.5937 4.4409-18.0288 4.4409-17.2182L4.4409-13.1969C4.4409-12.3848 4.60422-11.8139 4.93234-11.4828 5.26346-11.1547 5.70695-10.9914 6.26281-10.9914Z" fill="#FFFFFF" transform="matrix(1.00228 0 0 1 732.032 421.18)"/><path d="M8.04877-16.8706C8.04877-17.8685 7.88246-18.5442 7.55134-18.8963 7.22321-19.2469 6.78422-19.4237 6.23285-19.4237 5.67699-19.4237 5.2335-19.2574 4.90238-18.9263 4.57425-18.5982 4.41094-18.0288 4.41094-17.2182L4.41094-15.7859 1.08476-15.7859 1.08476-16.9965C1.08476-18.8064 1.52525-20.1938 2.40924-21.1617 3.29622-22.1326 4.60272-22.618 6.32874-22.618 8.05026-22.618 9.35227-22.1326 10.2363-21.1617 11.1232-20.1938 11.5667-18.8064 11.5667-16.9965L11.5667-16.4212C11.5667-14.0359 10.7457-12.5017 9.10355-11.8184 9.99803-11.4379 10.6318-10.8491 11.0034-10.0505 11.3779-9.25039 11.5667-8.2765 11.5667-7.12582L11.5667-5.36984C11.5667-3.55542 11.1232-2.16352 10.2363-1.19263 9.35227-0.224742 8.05026 0.257704 6.32874 0.257704 4.60272 0.257704 3.29622-0.224742 2.40924-1.19263 1.52525-2.16352 1.08476-3.55542 1.08476-5.36984L1.08476-7.22171 4.41094-7.22171 4.41094-5.1421C4.41094-4.33453 4.57425-3.76518 4.90238-3.43406 5.2335-3.10144 5.67699-2.93663 6.23285-2.93663 6.78422-2.93663 7.22321-3.10594 7.55134-3.44605 7.88246-3.78915 8.04877-4.46188 8.04877-5.46573L8.04877-7.22171C8.04877-8.26452 7.86597-8.99718 7.50339-9.42119 7.1438-9.8482 6.55947-10.0625 5.7534-10.0625L4.56676-10.0625 4.56676-13.2568 5.94518-13.2568C6.60442-13.2568 7.11983-13.4261 7.4914-13.7662 7.86298-14.1093 8.04877-14.7281 8.04877-15.6241Z" fill="#FFFFFF" transform="matrix(1.00228 0 0 1 747.909 421.18)"/></g></svg>